# AST/ASF file generated using VICON BodyLanguage
# -----------------------------------------------
:version 1.10
:name VICON
:units
  mass 1.0
  length 0.45
  angle deg
:documentation
   .ast/.asf automatically generated from VICON data using
   VICON BodyBuilder and BodyLanguage model FoxedUp or BRILLIANT.MOD
:root
   order TX TY TZ RX RY RZ
   axis XYZ
   position 0 0 0  
   orientation 0 0 0 
:bonedata
  begin
     id 1 
     name lhipjoint
     direction 0.662698 -0.695252 0.27831 
     length 2.53073 
     axis 0 0 0  XYZ
  end
  begin
     id 2 
     name lfemur
     direction 0.34202 -0.939693 0  
     length 7.16147  
     axis 0 0 20  XYZ
    dof rx ry rz
    limits (-160.0 20.0)
           (-70.0 70.0)
           (-60.0 70.0)
  end
  begin
     id 3 
     name ltibia
     direction 0.34202 -0.939693 0   
     length 7.63967   
     axis 0 0 20   XYZ
    dof rx
    limits (-10.0 170.0)
  end
  begin
     id 4 
     name lfoot
     direction 0.0938457 -0.257721 0.961651   
     length 1.89793   
     axis -90 7.62852e-016 20   XYZ
    dof rx rz
    limits (-45.0 90.0)
           (-70.0 20.0)
  end
  begin
     id 5 
     name ltoes
     direction -0.00116841 -0.0030592 0.999995   
     length 0.955649   
     axis -90 7.62852e-016 20   XYZ
    dof rx
    limits (-90.0 20.0)
  end
  begin
     id 6 
     name rhipjoint
     direction -0.649445 -0.705948 0.282592   
     length 2.49238  
     axis 0 0 0  XYZ 
  end
  begin
     id 7 
     name rfemur
     direction -0.34202 -0.939693 0   
     length 6.90728   
     axis 0 0 -20   XYZ
    dof rx ry rz
    limits (-160.0 20.0)
           (-70.0 70.0)
           (-70.0 60.0)
  end
  begin
     id 8 
     name rtibia
     direction -0.34202 -0.939693 0   
     length 7.72868   
     axis 0 0 -20   XYZ
    dof rx
    limits (-10.0 170.0)
 end
 begin
     id 9 
     name rfoot
     direction -0.0920068 -0.252865 0.963117   
     length 1.97476  
     axis -90 -7.62852e-016 -20   XYZ
    dof rx rz
    limits (-45.0 90.0)
           (-20.0 70.0)
  end
  begin
     id 10 
     name rtoes
     direction 0.000391322 0.00230649 0.999997   
     length 0.992641   
     axis -90 -7.62852e-016 -20   XYZ
    dof rx
    limits (-90.0 20.0)
  end
  begin
     id 11 
     name lowerback
     direction -0.00875327 0.998321 -0.0572635   
     length 2.20024   
     axis 0 0 0   XYZ
    dof rx ry rz
    limits (-20.0 45.0)
           (-30.0 30.0)
           (-30.0 30.0)
  end
  begin
     id 12 
     name upperback
     direction 0.00753931 0.999972 -0.000360425   
     length 2.20538   
     axis 0 0 0   XYZ
    dof rx ry rz
    limits (-20.0 45.0)
           (-30.0 30.0)
           (-30.0 30.0)
  end
  begin
     id 13 
     name thorax
     direction 0.0117767 0.999601 0.0256663   
     length 2.21508   
     axis 0 0 0   XYZ
    dof rx ry rz
    limits (-20.0 45.0)
           (-30.0 30.0)
           (-30.0 30.0)
  end
  begin
     id 14 
     name lowerneck
     direction 0.060228 0.994909 0.0807986   
     length 1.7607   
     axis 0 0 0   XYZ
    dof rx ry rz
    limits (-20.0 45.0)
           (-30.0 30.0)
           (-30.0 30.0)
  end
  begin
     id 15 
     name upperneck
     direction -0.0563647 0.959594 -0.275685   
     length 1.75612   
     axis 0 0 0   XYZ
    dof rx ry rz
    limits (-20.0 45.0)
           (-30.0 30.0)
           (-30.0 30.0)
  end
  begin
     id 16
     name head
     direction -0.0161544 0.99458 -0.102714  
     length 1.79288  
     axis 0 0 0   XYZ
    dof rx ry rz
    limits (-20.0 45.0)
           (-30.0 30.0)
           (-30.0 30.0)
  end
  begin
     id 17 
     name lclavicle
     direction 0.93913 0.332189 -0.087669  
     length 3.52087  
     axis 0 0 0   XYZ
    dof ry rz
    limits (-20.0 10.0)
           (0.0 20.0)
  end
  begin
     id 18 
     name lhumerus
     direction 1 -4.48974e-011 -2.70836e-027   
     length 5.35289   
     axis -180 -30 -90   XYZ
    dof rx ry rz
    limits (-60.0 90.0)
           (-90.0 90.0)
           (-90.0 90.0)
  end
  begin
     id 19
     name lradius
     direction 1 -4.48961e-011 -9.76021e-027   
     length 3.27727   
     axis -180 -30 -90   XYZ
    dof rx
    limits (-10.0 170.0)
  end
  begin
     id 20
     name lwrist
     direction 1 -4.49103e-011 -2.23668e-026   
     length 1.63864   
     axis 1.44924e-014 90 90   XYZ
    dof ry
    limits (-180.0 0.0)
 end
  begin
     id 21 
     name lhand
     direction 1 3.0697e-005 0.000161777   
     length 0.54443   
     axis 2.85318e-014 90 90   XYZ
    dof rx rz
    limits (-90.0 90.0)
           (-45.0 45.0)
  end
  begin
     id 22 
     name lfingers
     direction 1 -4.49027e-011 -8.9447e-026   
     length 0.438912   
     axis 5.70628e-014 90 90   XYZ
    dof rx
    limits (0.0 90.0)
  end
  begin
     id 23
     name lthumb
     direction 0.707058 2.6516e-005 0.707156   
     length 0.630274   
     axis -90 45 -3.53137e-014   XYZ
    dof rx rz
    limits (-45.0 45.0)
           (-45.0 45.0)
  end
  begin
     id 24 
     name rclavicle
     direction -0.95274 0.284984 -0.105215   
     length 3.43401  
     axis 0 0 0   XYZ 
    dof ry rz
    limits (-10.0 20.0)
           (-20.0 0.0)
  end
  begin
     id 25 
     name rhumerus
     direction -0.999999 -0.000575019 -0.00106829  
     length 5.52077   
     axis -180 30 90   XYZ
    dof rx ry rz
    limits (-90.0 60.0)
           (-90.0 90.0)
           (-90.0 90.0)
  end
  begin
     id 26 
     name rradius
     direction -1 -4.4879e-011 -6.35415e-027   
     length 3.32364   
     axis -180 30 90   XYZ
    dof rx
    limits (-10.0 170.0)
  end
  begin
     id 27 
     name rwrist
     direction -1 -4.49048e-011 -9.98542e-027   
     length 1.66182   
     axis 6.32482e-015 -90 -90   XYZ
    dof ry
    limits (-180.0 0.0)
  end
  begin
     id 28
     name rhand
     direction -1 -4.48978e-011 -1.99771e-026   
     length 0.732235   
     axis 1.27479e-014 -90 -90   XYZ
    dof rx rz
    limits (-90.0 90.0)
           (-45.0 45.0)
  end
  begin
     id 29
     name rfingers
     direction -1 -4.49144e-011 -3.99245e-026   
     length 0.590347   
     axis 2.5496e-014 -90 -90   XYZ
    dof rx
    limits (0.0 90.0)
  end
  begin
     id 30
     name rthumb
     direction -0.707107 -6.35121e-011 0.707107   
     length 0.847624   
     axis -90 -45 -2.82974e-014   XYZ
    dof rx rz
    limits (-45.0 45.0)
           (-45.0 45.0)
  end
:hierarchy
  begin
    root lhipjoint rhipjoint lowerback
    lhipjoint lfemur
    lfemur ltibia
    ltibia lfoot
    lfoot ltoes
    rhipjoint rfemur
    rfemur rtibia
    rtibia rfoot
    rfoot rtoes
    lowerback upperback
    upperback thorax
    thorax lowerneck lclavicle rclavicle
    lowerneck upperneck
    upperneck head
    lclavicle lhumerus
    lhumerus lradius
    lradius lwrist
    lwrist lhand lthumb
    lhand lfingers
    rclavicle rhumerus
    rhumerus rradius
    rradius rwrist
    rwrist rhand rthumb
    rhand rfingers
  end

#!OML:ASF G:\Work\Work\Patient Classification 1\Elijah\terrain1\Elijah.ASF
:FULLY-SPECIFIED
:DEGREES
2139
root 23.4871 19.6668 16.5805 727.589 30.2083 369.726
lowerback 6.54922 0.0600681 -6.39513
upperback 2.4599 -0.321085 -2.35944
thorax -1.10282 -0.161214 1.17419
lowerneck -14.0606 5.88247 13.3616
upperneck 31.6225 8.13542 -9.01167
head 14.0937 4.10375 -4.58976
rclavicle 9.99141e-014 -2.09718e-014
rhumerus -41.1182 7.72796 -88.7273
rradius 34.8369
rwrist 3.7484
rhand -5.65489 21.2124
rfingers 7.12502
rthumb 20.1641 -7.76106
lclavicle 9.99141e-014 -2.09718e-014
lhumerus -43.5036 18.869 68.2589
lradius 35.827
lwrist 11.4727
lhand -22.0288 25.9699
lfingers 7.12502
lthumb 4.38097 55.9046
rfemur -27.9128 -6.46259 15.5299
rtibia 35.7758
rfoot -8.41779 -10.3298
rtoes -21.7241
lfemur -3.67933 12.3445 -11.8949
ltibia 66.3553
lfoot -8.68729 -11.5001
ltoes -20.9291
2140
root 23.4808 19.6394 16.7059 727.496 29.6124 369.042
lowerback 6.00606 -0.0371973 -6.26095
upperback 2.76096 -0.376047 -1.83839
thorax -0.482722 -0.213596 1.63791
lowerneck -13.1129 6.14819 15.5114
upperneck 31.4983 8.62596 -10.6993
head 14.13 4.39688 -5.60459
rclavicle -2.17669e-014 7.95139e-015
rhumerus -39.9527 7.75251 -87.9359
rradius 35.6345
rwrist 3.64264
rhand -5.29084 20.89
rfingers 7.12502
rthumb 20.514 -8.04617
lclavicle -2.17669e-014 7.95139e-015
lhumerus -43.2442 19.01 69.1046
lradius 34.6094
lwrist 10.2289
lhand -20.6912 24.9485
lfingers 7.12502
lthumb 5.67249 54.8526
rfemur -28.4476 -5.7107 16.4401
rtibia 36.6942
rfoot -9.91067 -10.7804
rtoes -18.0722
lfemur -4.45858 11.9996 -11.0254
ltibia 67.7535
lfoot -5.44571 -12.2345
ltoes -9.76581
2141
root 23.4669 19.5993 16.8308 727.169 28.9819 368.066
lowerback 5.5233 -0.0247543 -6.06045
upperback 3.0201 -0.296688 -1.26164
thorax 0.0497771 -0.196565 2.11309
lowerneck -13.0268 6.07154 16.1895
upperneck 31.524 8.55121 -11.3539
head 14.1864 4.3712 -6.02404
rclavicle -3.50855e-014 1.49089e-014
rhumerus -39.0639 7.55198 -87.2861
rradius 36.5297
rwrist 3.4453
rhand -5.96445 20.7415
rfingers 7.12502
rthumb 19.8665 -8.26309
lclavicle -3.50855e-014 1.49089e-014
lhumerus -43.036 17.6974 70.5432
lradius 34.2281
lwrist 10.2317
lhand -20.0945 26.3882
lfingers 7.12502
lthumb 6.24858 56.2761
rfemur -28.7858 -4.70224 17.5864
rtibia 37.3534
rfoot -10.9449 -11.2006
rtoes -15.4798
lfemur -5.59857 11.7058 -10.1738
ltibia 69.5708
lfoot -3.80144 -11.6847
ltoes -11.5123
2142
root 23.5331 19.5905 16.9108 727.56 29.638 368.854
lowerback 5.82738 -0.454553 -5.95764
upperback 3.00822 -0.885485 -1.26487
thorax -0.0859622 -0.485 2.08679
lowerneck -11.9052 5.86228 17.1095
upperneck 30.6288 8.36283 -12.1751
head 13.6022 4.31544 -6.53642
rclavicle 2.16675e-014 7.55382e-015
rhumerus -38.7754 7.27899 -86.5918
rradius 37.6082
rwrist 3.17647
rhand -6.83045 20.705
rfingers 7.12502
rthumb 19.0339 -8.3837
lclavicle 2.16675e-014 7.55382e-015
lhumerus -42.8541 16.6635 72.1442
lradius 33.5341
lwrist 9.05051
lhand -18.9733 26.9052
lfingers 7.12502
lthumb 7.33097 56.7581
rfemur -28.3939 -6.95691 16.9474
rtibia 37.6657
rfoot -11.3821 -9.93437
rtoes -17.9573
lfemur -6.4288 9.5216 -11.6213
ltibia 71.2036
lfoot -2.13689 -10.9407
ltoes -5.81496
2143
root 23.5269 19.5704 16.9833 727.413 29.3274 368.165
lowerback 6.22225 -0.540129 -5.68714
upperback 2.92586 -1.01541 -0.694365
thorax -0.37556 -0.543406 2.53836
lowerneck -11.0288 5.74888 17.8788
upperneck 29.7191 8.32134 -12.9963
head 13.0971 4.29742 -6.9873
rclavicle -1.0138e-014 3.57812e-015
rhumerus -38.3859 7.16329 -85.8209
rradius 38.8482
rwrist 2.81142
rhand -7.64341 20.7514
rfingers 7.12502
rthumb 18.2519 -8.41227
lclavicle -1.0138e-014 3.57812e-015
lhumerus -41.8174 19.5085 71.6586
lradius 29.873
lwrist 3.13153
lhand -15.8281 26.2464
lfingers 7.12502
lthumb 10.366 55.9709
rfemur -28.5181 -6.3803 17.737
rtibia 37.7445
rfoot -10.8367 -10.2377
rtoes -21.4374
lfemur -8.03044 9.02663 -11.1556
ltibia 73.4043
lfoot -0.716432 -10.6437
ltoes -6.97523
2144
root 23.5476 19.5891 17.0856 727.166 29.0187 367.208
lowerback 6.04798 -0.613552 -4.99719
upperback 2.99818 -1.05927 -0.123223
thorax -0.204544 -0.569628 2.74054
lowerneck -10.3299 5.62287 18.6324
upperneck 28.8592 8.22804 -13.7676
head 12.647 4.25619 -7.41925
rclavicle 2.51463e-014 -1.74931e-014
rhumerus -37.8999 6.93747 -85.0193
rradius 40.0536
rwrist 2.19264
rhand -8.49961 20.9546
rfingers 7.12502
rthumb 17.4281 -8.2841
lclavicle 2.51463e-014 -1.74931e-014
lhumerus -41.8312 16.9975 73.9348
lradius 30.3757
lwrist 2.20045
lhand -12.7135 26.1323
lfingers 7.12502
lthumb 13.3694 55.6834
rfemur -28.2295 -6.07492 18.7235
rtibia 37.527
rfoot -10.936 -10.2321
rtoes -22.4545
lfemur -10.0901 8.79337 -10.6012
ltibia 75.6188
lfoot 0.12212 -9.51914
ltoes -18.6808
2145
root 23.5608 19.5854 17.159 726.843 28.7087 366.251
lowerback 5.93019 -0.645786 -4.20464
upperback 3.26385 -1.0443 0.382471
thorax 0.126451 -0.569251 2.81207
lowerneck -9.58919 5.4075 19.2565
upperneck 27.6679 7.96553 -14.3965
head 12.0123 4.12982 -7.76729
rclavicle 1.08934e-013 -1.11319e-014
rhumerus -37.0537 6.67889 -84.2418
rradius 41.1822
rwrist 1.24038
rhand -9.56323 21.3737
rfingers 7.12502
rthumb 16.4042 -7.95268
lclavicle 1.08934e-013 -1.11319e-014
lhumerus -41.4419 15.3377 75.8199
lradius 30.7591
lwrist -0.224321
lhand -10.3789 24.7763
lfingers 7.12502
lthumb 15.6188 54.1658
rfemur -27.9422 -5.78327 19.7199
rtibia 37.2164
rfoot -11.2711 -10.1558
rtoes -21.9908
lfemur -11.3177 8.33995 -9.81846
ltibia 77.8701
lfoot 1.12493 -11.2693
ltoes -13.3457
2146
root 23.5801 19.5884 17.2269 726.419 28.3626 365.284
lowerback 5.75509 -0.700954 -3.32318
upperback 3.65835 -1.05785 0.751679
thorax 0.619798 -0.581482 2.69138
lowerneck -9.26578 5.41002 20.6752
upperneck 26.9163 7.96087 -15.5052
head 11.7715 4.15295 -8.44747
rclavicle 2.96189e-014 -2.38542e-015
rhumerus -36.0815 6.69987 -83.8827
rradius 42.1558
rwrist -0.095294
rhand -11.3117 22.0626
rfingers 7.12502
rthumb 14.7202 -7.39481
lclavicle 2.96189e-014 -2.38542e-015
lhumerus -40.3914 15.8848 76.0327
lradius 29.0256
lwrist -4.87323
lhand -7.91864 22.6062
lfingers 7.12502
lthumb 17.9871 51.7945
rfemur -27.5668 -5.67628 20.7328
rtibia 36.9607
rfoot -11.5825 -9.97528
rtoes -22.0747
lfemur -12.6393 8.25047 -9.08183
ltibia 80.0873
lfoot 1.13217 -12.8718
ltoes -15.6905
